# xmcd
#
# Track frame offsets: 
#        150
#        18206
#        34839
#        56123
#        71095
#        92735
#        114415
#        115230
#        134205
#        149502
#        166780
#        186930
#        204623
#
# Disc length: 2919 seconds
#
# Revision: 0
# Processed by: cddbd v1.5.2PL0 Copyright (c) Steve Scherf et al.
# Submitted via: ExactAudioCopyFreeDBPlugin 1.0
#
DISCID=c30b650d
DTITLE=BJ the Chicago Kid - 1123
DYEAR=2019
DGENRE=R&B
TTITLE0=Feel the Vibe
TTITLE1=Champagne
TTITLE2=Get Away
TTITLE3=Time Today
TTITLE4=Can't Wait
TTITLE5=Back It Up
TTITLE6=1123's Playa's Intro
TTITLE7=Playa's Ball
TTITLE8=Too Good
TTITLE9=Close
TTITLE10=Rather Be with You
TTITLE11=Worryin' Bout Me
TTITLE12=Reach
EXTD=
EXTT0=
EXTT1=
EXTT2=
EXTT3=
EXTT4=
EXTT5=
EXTT6=
EXTT7=
EXTT8=
EXTT9=
EXTT10=
EXTT11=
EXTT12=
PLAYORDER=
